<?xml version="1.0" encoding="UTF-8" standalone="no"?>
<svg
   xmlns:dc="http://purl.org/dc/elements/1.1/"
   xmlns:cc="http://creativecommons.org/ns#"
   xmlns:rdf="http://www.w3.org/1999/02/22-rdf-syntax-ns#"
   xmlns:svg="http://www.w3.org/2000/svg"
   xmlns="http://www.w3.org/2000/svg"
   id="svg2868"
   version="1.1"
   viewBox="0 0 13.427076 13.427076"
   height="50.748005"
   width="50.748005">
  <defs
     id="defs2862">
       <style type="text/css">
      :root {
         --color-brand: #e7e078;
         --color-brand-middle: #3ca3aa;
         --color-brand-secondary: #3c23ae;

         --color-light-shadow: #ffffff;
         --color-dark-shadow:  #666666;
         --movil: "50%";
      }

      .gradient-brand-secondary {
         stop-color: var(--color-brand-secondary);
      }

      .gradient-brand-middle {
         stop-color: var(--color-brand-middle);
         offset:50%;
      }
      .gradient-brand {
         stop-color: var(--color-brand);
      }
      .gradient{
         fill:url(#gradient);
      }
      .social-foreground{
         fill:var(--color-light-shadow);
         fill-opacity: 1;
      }


    </style>
   
    
    

    <linearGradient x1="0" y1="0" x2="100%" y2="100%" id="gradient">\
        <stop class="gradient-brand-middle" offset="0%"/>
        <stop class="gradient-brand-secondary" offset="100%"/>
    </linearGradient>
   </defs>
  
  <metadata
     id="metadata2865">
    <rdf:RDF>
      <cc:Work
         rdf:about="">
        <dc:format>image/svg+xml</dc:format>
        <dc:type
           rdf:resource="http://purl.org/dc/dcmitype/StillImage" />
        <dc:title></dc:title>
      </cc:Work>
    </rdf:RDF>
  </metadata>
  <g
     transform="translate(-30.598184,1.0252989)"
     id="layer1">
    <g
       transform="matrix(0.03527778,0,0,-0.03527778,-165.06156,131.61739)"
       id="instagramIcon">
      <path
         id="path2356"
         class="gradient"
         style="fill-rule:nonzero;stroke:none"
         d="m 5736.5601,3379.34 v 0 c -105.1,0 -190.3,85.2 -190.3,190.3 v 0 c 0,105.11 85.2,190.31 190.3,190.31 v 0 c 105.11,0 190.31,-85.2 190.31,-190.31 v 0 c 0,-105.1 -85.2,-190.3 -190.31,-190.3" />
      <path
         id="path2358"
         class="social-foreground"
         style="fill-rule:nonzero;stroke:none"
         d="m 5736.5601,3673.99 c -28.34,0 -31.89,-0.12 -43.02,-0.63 -11.1,-0.51 -18.69,-2.27 -25.33,-4.85 -6.86,-2.67 -12.68,-6.24 -18.48,-12.04 -5.8,-5.8 -9.37,-11.62 -12.03,-18.48 -2.58,-6.64 -4.35,-14.22 -4.85,-25.33 -0.51,-11.13 -0.63,-14.68 -0.63,-43.02 0,-28.34 0.12,-31.89 0.63,-43.02 0.5,-11.11 2.27,-18.69 4.85,-25.33 2.66,-6.86 6.23,-12.68 12.03,-18.48 5.8,-5.8 11.62,-9.37 18.48,-12.04 6.64,-2.57 14.23,-4.34 25.33,-4.85 11.13,-0.5 14.68,-0.62 43.02,-0.62 28.34,0 31.89,0.12 43.02,0.62 11.11,0.51 18.69,2.28 25.33,4.85 6.86,2.67 12.68,6.24 18.48,12.04 5.81,5.8 9.37,11.62 12.04,18.48 2.58,6.64 4.34,14.22 4.85,25.33 0.51,11.13 0.63,14.68 0.63,43.02 0,28.34 -0.12,31.89 -0.63,43.02 -0.51,11.11 -2.27,18.69 -4.85,25.33 -2.67,6.86 -6.23,12.68 -12.04,18.48 -5.8,5.8 -11.62,9.37 -18.48,12.04 -6.64,2.58 -14.22,4.34 -25.33,4.85 -11.13,0.51 -14.68,0.63 -43.02,0.63 m 0,-18.8 c 27.86,0 31.16,-0.11 42.17,-0.61 10.17,-0.47 15.69,-2.17 19.37,-3.6 4.87,-1.89 8.35,-4.15 12,-7.8 3.65,-3.65 5.91,-7.13 7.8,-12 1.43,-3.68 3.13,-9.2 3.6,-19.38 0.5,-11 0.61,-14.3 0.61,-42.16 0,-27.86 -0.11,-31.16 -0.61,-42.16 -0.47,-10.18 -2.17,-15.7 -3.6,-19.38 -1.89,-4.87 -4.15,-8.34 -7.8,-12 -3.65,-3.65 -7.13,-5.91 -12,-7.8 -3.68,-1.43 -9.2,-3.13 -19.37,-3.59 -11.01,-0.5 -14.3,-0.61 -42.17,-0.61 -27.86,0 -31.16,0.11 -42.16,0.61 -10.17,0.46 -15.7,2.16 -19.38,3.59 -4.87,1.89 -8.34,4.15 -11.99,7.8 -3.65,3.66 -5.92,7.13 -7.81,12 -1.43,3.68 -3.13,9.2 -3.59,19.38 -0.5,11 -0.61,14.3 -0.61,42.16 0,27.86 0.11,31.16 0.61,42.16 0.46,10.18 2.16,15.7 3.59,19.38 1.89,4.87 4.16,8.35 7.81,12 3.65,3.65 7.12,5.91 11.99,7.8 3.68,1.43 9.21,3.13 19.38,3.6 11,0.5 14.3,0.61 42.16,0.61" />
      <path
         id="path2360"
         class="social-foreground"
         style="fill-rule:nonzero;stroke:none"
         d="m 5736.5601,3534.86 c -19.21,0 -34.78,15.57 -34.78,34.78 0,19.21 15.57,34.78 34.78,34.78 19.21,0 34.78,-15.57 34.78,-34.78 0,-19.21 -15.57,-34.78 -34.78,-34.78 m 0,88.36 c -29.59,0 -53.58,-23.99 -53.58,-53.58 0,-29.59 23.99,-53.58 53.58,-53.58 29.6,0 53.58,23.99 53.58,53.58 0,29.59 -23.98,53.58 -53.58,53.58" />
      <path
         id="path2362"
         class="social-foreground"
         style="fill-rule:nonzero;stroke:none"
         d="m 5804.7901,3625.34 c 0,-6.91 -5.61,-12.52 -12.53,-12.52 -6.91,0 -12.52,5.61 -12.52,12.52 0,6.92 5.61,12.52 12.52,12.52 6.92,0 12.53,-5.6 12.53,-12.52" />
    </g>
  </g>
</svg>
