<?xml version="1.0" encoding="UTF-8" standalone="no"?>
<svg
   xmlns:dc="http://purl.org/dc/elements/1.1/"
   xmlns:cc="http://creativecommons.org/ns#"
   xmlns:rdf="http://www.w3.org/1999/02/22-rdf-syntax-ns#"
   xmlns:svg="http://www.w3.org/2000/svg"
   xmlns="http://www.w3.org/2000/svg"
   id="svg2868"
   version="1.1"
   viewBox="0 0 13.42704 13.427075"
   height="50.748001"
   width="50.747868">
  <defs
     id="defs2862" >
   
     <style type="text/css">
      :root {
         --color-brand: #e7e078;
         --color-brand-middle: #3ca3aa;
         --color-brand-secondary: #3c23ae;

         --color-light-shadow: #ffffff;
         --color-dark-shadow:  #666666;
         --movil: "50%";
      }

      .gradient-brand-secondary {
         stop-color: var(--color-brand-secondary);
      }

      .gradient-brand-middle {
         stop-color: var(--color-brand-middle);
         offset:50%;
      }
      .gradient-brand {
         stop-color: var(--color-brand);
      }
      .gradient{
         fill:url(#gradient);
      }
      .social-foreground{
         fill:var(--color-light-shadow);
         fill-opacity: 1;
      }


    </style>
   
    
    

    <linearGradient x1="0" y1="0" x2="100%" y2="100%" id="gradient">\
        <stop class="gradient-brand-middle" offset="0%"/>
        <stop class="gradient-brand-secondary" offset="100%"/>
    </linearGradient>
</defs>
   
  <metadata
     id="metadata2865">
    <rdf:RDF>
      <cc:Work
         rdf:about="">
        <dc:format>image/svg+xml</dc:format>
        <dc:type
           rdf:resource="http://purl.org/dc/dcmitype/StillImage" />
        <dc:title></dc:title>
      </cc:Work>
    </rdf:RDF>
  </metadata>
  <g
     transform="translate(-36.375766,-27.970986)"
     id="layer1">
    <g
       transform="matrix(0.03527778,0,0,-0.03527778,-160.92831,88.144295)"
       id="linkedinIcon">
      <path
         id="path2340"
         class="gradient"
         style="fill-rule:nonzero;stroke:none"
         d="m 5783.1801,1325.09 v 0 c -105.106,0 -190.309,85.2 -190.309,190.3 v 0 c 0,105.1 85.203,190.31 190.309,190.31 v 0 c 105.1,0 190.3,-85.21 190.3,-190.31 v 0 c 0,-105.1 -85.2,-190.3 -190.3,-190.3" />
      <path
         id="path2342"
         class="social-foreground"
         style="fill-rule:nonzero;stroke:none"
         d="m 5696.8801,1430.58 h 39.39 v 127.23 h -39.39 v -127.23" />
      <path
         id="path2344"
         class="social-foreground"
         style="fill-rule:nonzero;stroke:none"
         d="m 5716.3901,1574.47 c 12.86,0 23.29,10.53 23.29,23.49 0,12.96 -10.43,23.47 -23.29,23.47 -12.87,0 -23.29,-10.51 -23.29,-23.47 0,-12.96 10.42,-23.49 23.29,-23.49" />
      <path
         id="path2346"
         class="social-foreground"
         style="fill-rule:nonzero;stroke:none"
         d="m 5799.2301,1497.37 c 0,17.88 8.23,28.54 24,28.54 14.48,0 21.44,-10.23 21.44,-28.54 0,-18.33 0,-66.79 0,-66.79 h 39.2 c 0,0 0,46.48 0,80.56 0,34.08 -19.32,50.56 -46.3,50.56 -26.99,0 -38.34,-21.02 -38.34,-21.02 v 17.13 h -37.78 v -127.23 h 37.78 c 0,0 0,47.19 0,66.79" />
    </g>
  </g>
</svg>
