<?xml version="1.0" encoding="UTF-8" standalone="no"?>
<svg
   xmlns:dc="http://purl.org/dc/elements/1.1/"
   xmlns:cc="http://creativecommons.org/ns#"
   xmlns:rdf="http://www.w3.org/1999/02/22-rdf-syntax-ns#"
   xmlns:svg="http://www.w3.org/2000/svg"
   xmlns="http://www.w3.org/2000/svg"
   id="svg2868"
   version="1.1"
   viewBox="0 0 9.1771609 9.1792754"
   height="34.693325"
   width="34.685333">
  <defs
     id="defs2862" />
  <metadata
     id="metadata2865">
    <rdf:RDF>
      <cc:Work
         rdf:about="">
        <dc:format>image/svg+xml</dc:format>
        <dc:type
           rdf:resource="http://purl.org/dc/dcmitype/StillImage" />
        <dc:title></dc:title>
      </cc:Work>
    </rdf:RDF>
  </metadata>
  <g
     transform="translate(-72.321025,-93.354314)"
     id="layer1">
    <g
       id="g4182">
      <path
         id="path3925"
         style="fill:#171717;fill-opacity:1;fill-rule:evenodd;stroke:none;stroke-width:0.03527778"
         d="m 76.99318,101.58427 c -0.770114,0 -1.485194,-0.22754 -2.084211,-0.62195 l -1.455208,0.4639 0.472369,-1.39629 c -0.453319,-0.620185 -0.721078,-1.381479 -0.721078,-2.204157 0,-0.122414 0.0064,-0.244475 0.0187,-0.364772 0.185914,-1.902531 1.805517,-3.393723 3.769431,-3.393723 1.988961,0 3.623381,1.529292 3.775075,3.465337 0.0085,0.09701 0.0127,0.194027 0.0127,0.293158 0,2.073275 -1.700036,3.758497 -3.787776,3.758497 z m 4.502856,-3.872444 c -0.06103,-2.416881 -2.052108,-4.357512 -4.502856,-4.357512 -2.421466,0 -4.395611,1.896181 -4.501091,4.275315 -0.0021,0.06526 -0.0042,0.13088 -0.0042,0.196144 0,0.845961 0.236008,1.634772 0.64523,2.309637 l -0.812094,2.39818 2.495197,-0.79304 c 0.645583,0.35419 1.387828,0.55668 2.176991,0.55668 2.488848,0 4.504973,-2.00166 4.504973,-4.471457 0,-0.0381 0,-0.07585 -0.0021,-0.113947" />
      <path
         id="path3927"
         style="fill:#171717;fill-opacity:1;fill-rule:evenodd;stroke:none;stroke-width:0.03527778"
         d="m 79.057989,98.728531 c -0.111831,-0.05468 -0.65405,-0.320675 -0.755297,-0.356305 -0.101248,-0.0381 -0.174978,-0.05503 -0.248709,0.05468 -0.07408,0.109714 -0.286808,0.356659 -0.350308,0.428273 -0.06526,0.07373 -0.128411,0.0822 -0.240242,0.02752 -0.109714,-0.05503 -0.46602,-0.16898 -0.887942,-0.544336 -0.327025,-0.288925 -0.550686,-0.647347 -0.613833,-0.757061 -0.06315,-0.109714 -0.0063,-0.168981 0.04833,-0.223661 0.0508,-0.05045 0.109714,-0.128764 0.166864,-0.191911 0.01482,-0.01905 0.02716,-0.03598 0.03986,-0.05292 0.0254,-0.03986 0.04445,-0.07796 0.0695,-0.130528 0.0381,-0.07373 0.0194,-0.13723 -0.0081,-0.191911 -0.02752,-0.05503 -0.249066,-0.594785 -0.341846,-0.814212 -0.09066,-0.219428 -0.183445,-0.181681 -0.248708,-0.181681 -0.0635,0 -0.137231,-0.01023 -0.210961,-0.01023 -0.07373,0 -0.194028,0.02752 -0.295275,0.136878 -0.101248,0.109714 -0.385939,0.375708 -0.385939,0.915459 0,0.126647 0.02328,0.253295 0.0568,0.373239 0.11183,0.386292 0.352425,0.704497 0.394405,0.759531 0.05468,0.07161 0.763411,1.214613 1.885597,1.655586 1.124304,0.436739 1.124304,0.291041 1.326798,0.271991 0.202495,-0.01693 0.653697,-0.263525 0.744361,-0.5207 0.09278,-0.255411 0.09278,-0.474839 0.06526,-0.521052 -0.02716,-0.04445 -0.101247,-0.07161 -0.210608,-0.126648" />
    </g>
  </g>
</svg>
