<?xml version="1.0" encoding="UTF-8" standalone="no"?>
<svg
   xmlns:dc="http://purl.org/dc/elements/1.1/"
   xmlns:cc="http://creativecommons.org/ns#"
   xmlns:rdf="http://www.w3.org/1999/02/22-rdf-syntax-ns#"
   xmlns:svg="http://www.w3.org/2000/svg"
   xmlns="http://www.w3.org/2000/svg"
   id="svg2868"
   version="1.1"
   viewBox="0 0 13.42697 13.427076"
   height="50.748005"
   width="50.747604">
  <defs
     id="defs2862">
         <style type="text/css">
      :root {
         --color-brand: #e7e078;
         --color-brand-middle: #3ca3aa;
         --color-brand-secondary: #3c23ae;

         --color-light-shadow: #ffffff;
         --color-dark-shadow:  #666666;
         --movil: "50%";
      }

      .gradient-brand-secondary {
         stop-color: var(--color-brand-secondary);
      }

      .gradient-brand-middle {
         stop-color: var(--color-brand-middle);
         offset:50%;
      }
      .gradient-brand {
         stop-color: var(--color-brand);
      }
      .gradient{
         fill:url(#gradient);
      }
      .social-foreground{
         fill:var(--color-light-shadow);
         fill-opacity: 1;
      }


    </style>
   
    
    

    <linearGradient x1="0" y1="0" x2="100%" y2="100%" id="gradient">\
        <stop class="gradient-brand-middle" offset="0%"/>
        <stop class="gradient-brand-secondary" offset="100%"/>
    </linearGradient>
   </defs>
  <metadata
     id="metadata2865">
    <rdf:RDF>
      <cc:Work
         rdf:about="">
        <dc:format>image/svg+xml</dc:format>
        <dc:type
           rdf:resource="http://purl.org/dc/dcmitype/StillImage" />
        <dc:title></dc:title>
      </cc:Work>
    </rdf:RDF>
  </metadata>
  <g
     transform="translate(-2.8264146,-6.6254408)"
     id="layer1">
    <g
       transform="matrix(0.03527778,0,0,-0.03527778,-32.432774,143.55438)"
       id="whatsappIcon">
      <path
         id="path2318"
         class="gradient"
         style="fill-rule:nonzero;stroke:none"
         d="m 1189.78,3500.84 v 0 c -105.108,0 -190.307,85.2 -190.307,190.3 v 0 c 0,105.1 85.199,190.31 190.307,190.31 v 0 c 105.1,0 190.3,-85.21 190.3,-190.31 v 0 c 0,-105.1 -85.2,-190.3 -190.3,-190.3" />
      <path
         id="path2320"
         class="social-foreground"
         style="fill-rule:evenodd;stroke:none"
         d="m 1191.67,3608.33 c -17.51,0 -33.78,5.18 -47.4,14.15 l -33.11,-10.55 10.75,31.76 c -10.32,14.11 -16.41,31.43 -16.41,50.14 0,2.78 0.14,5.57 0.43,8.3 4.22,43.28 41.07,77.2 85.74,77.2 45.25,0 82.43,-34.78 85.89,-78.83 0.19,-2.21 0.28,-4.41 0.28,-6.67 0,-47.16 -38.67,-85.5 -86.17,-85.5 z m 102.44,88.09 c -1.39,54.99 -46.68,99.13 -102.44,99.13 -55.08,0 -99.99,-43.14 -102.389,-97.26 -0.047,-1.49 -0.093,-2.97 -0.093,-4.46 0,-19.24 5.372,-37.19 14.682,-52.54 l -18.475,-54.55 56.755,18.04 c 14.69,-8.06 31.58,-12.67 49.52,-12.67 56.62,0 102.49,45.53 102.49,101.72 0,0.86 0,1.73 -0.05,2.59" />
      <path
         id="path2322"
         class="social-foreground"
         style="fill-rule:evenodd;stroke:none"
         d="m 1238.65,3673.29 c -2.55,1.25 -14.88,7.3 -17.18,8.11 -2.31,0.87 -3.99,1.25 -5.67,-1.24 -1.67,-2.5 -6.52,-8.11 -7.96,-9.74 -1.49,-1.68 -2.92,-1.88 -5.47,-0.63 -2.49,1.25 -10.6,3.84 -20.2,12.38 -7.44,6.57 -12.52,14.73 -13.96,17.23 -1.44,2.49 -0.14,3.84 1.1,5.08 1.15,1.15 2.5,2.93 3.79,4.37 0.34,0.43 0.63,0.81 0.91,1.2 0.58,0.91 1.01,1.77 1.59,2.97 0.86,1.68 0.43,3.12 -0.19,4.37 -0.63,1.25 -5.67,13.53 -7.78,18.52 -2.06,4.99 -4.17,4.13 -5.66,4.13 -1.44,0 -3.12,0.23 -4.8,0.23 -1.68,0 -4.41,-0.62 -6.71,-3.11 -2.31,-2.5 -8.78,-8.54 -8.78,-20.83 0,-2.87 0.52,-5.75 1.29,-8.49 2.54,-8.78 8.01,-16.02 8.97,-17.27 1.25,-1.64 17.37,-27.64 42.9,-37.67 25.57,-9.93 25.57,-6.62 30.18,-6.19 4.6,0.39 14.87,6 16.93,11.85 2.12,5.81 2.12,10.8 1.49,11.86 -0.62,1 -2.3,1.63 -4.79,2.87" />
    </g>
  </g>
</svg>
