<?xml version="1.0" encoding="UTF-8" standalone="no"?>
<svg
   xmlns:dc="http://purl.org/dc/elements/1.1/"
   xmlns:cc="http://creativecommons.org/ns#"
   xmlns:rdf="http://www.w3.org/1999/02/22-rdf-syntax-ns#"
   xmlns:svg="http://www.w3.org/2000/svg"
   xmlns="http://www.w3.org/2000/svg"
   id="svg2868"
   version="1.1"
   viewBox="0 0 13.390387 9.433913"
   height="35.655735"
   width="50.609337">
  <defs
     id="defs2862">
       <style type="text/css">
      :root {
         --color-brand: #e7e078;
         --color-brand-middle: #3ca3aa;
         --color-brand-secondary: #3c23ae;

         --color-light-shadow: #ffffff;
         --color-dark-shadow:  #666666;
         --movil: "50%";
      }

      .gradient-brand-secondary {
         stop-color: var(--color-brand-secondary);
      }

      .gradient-brand-middle {
         stop-color: var(--color-brand-middle);
         offset:50%;
      }
      .gradient-brand {
         stop-color: var(--color-brand);
      }
      .gradient{
         fill:url(#gradient);
      }
      .social-foreground{
         fill:var(--color-light-shadow);
         fill-opacity: 1;
      }


    </style>
   
    
    

    <linearGradient x1="0" y1="0" x2="100%" y2="100%" id="gradient">\
        <stop class="gradient-brand-middle" offset="0%"/>
        <stop class="gradient-brand-secondary" offset="100%"/>
    </linearGradient>
   </defs>
   
  <metadata
     id="metadata2865">
    <rdf:RDF>
      <cc:Work
         rdf:about="">
        <dc:format>image/svg+xml</dc:format>
        <dc:type
           rdf:resource="http://purl.org/dc/dcmitype/StillImage" />
        <dc:title></dc:title>
      </cc:Work>
    </rdf:RDF>
  </metadata>
  <g
     transform="translate(-8.7839475,-26.583633)"
     id="layer1">
    <g
       transform="matrix(0.03527778,0,0,-0.03527778,-186.82676,105.85665)"
       id="youtubeIcon">
      <path
         id="path2538"
         class="gradient"
         style="fill-opacity:1;fill-rule:nonzero;stroke:none"
         d="m 5916.5101,2205.352 c -4.37,16.437 -17.23,29.386 -33.56,33.777 -29.6,7.98 -148.3,7.98 -148.3,7.98 0,0 -118.69,0 -148.29,-7.98 -16.33,-4.391 -29.2,-17.34 -33.56,-33.777 -7.93,-29.793 -7.93,-91.954 -7.93,-91.954 0,0 0,-62.16 7.93,-91.949 4.36,-16.437 17.23,-29.39 33.56,-33.777 29.6,-7.981 148.29,-7.981 148.29,-7.981 0,0 118.7,0 148.3,7.981 16.33,4.387 29.19,17.34 33.56,33.777 7.93,29.789 7.93,91.949 7.93,91.949 0,0 0,62.161 -7.93,91.954" />
      <path
         id="path2540"
         class="social-foreground"
         style="fill-rule:nonzero;stroke:none"
         d="m 5695.8301,2056.961 v 112.879 l 99.21,-56.442 z" />
    </g>
  </g>
</svg>
